<svg width="1920" height="1080" viewBox="0 0 1920 1080" fill="none" xmlns="http://www.w3.org/2000/svg">
<g clip-path="url(#clip0_38_520)">
<path d="M839.019 553.42L1172.55 851.29H505.487L839.019 553.42Z" fill="#63A1A5"/>
<path d="M1557.81 540.478L1910.45 906.293H1205.18L1557.81 540.478Z" fill="#63A1A5"/>
<path d="M1128.01 483.857L1560.96 923.684H695.053L1128.01 483.857Z" fill="#4C696B"/>
<rect width="387.58" height="111.108" transform="matrix(-0.865364 -0.501143 0.749549 -0.661949 1044.91 1070.34)" fill="#2E3E3F"/>
<path d="M402.426 424L925.008 916H-120.156L402.426 424Z" fill="#4C696B"/>
<path d="M1557.9 535L1634 610.489L1606.05 605.857L1594.21 614.62L1579.02 586.578L1563.58 610.489L1555.14 598.846L1542.11 618L1529.88 602.101L1517.45 618L1510.14 608.36L1479 618L1557.9 535Z" fill="#EEF7F8"/>
<path d="M2036 1002C2036 1148.91 1826.25 1268 1567.5 1268C1308.75 1268 1099 1148.91 1099 1002C1099 855.092 1306.5 908.5 1648.5 791C1997 746.5 1939.5 887.5 2036 1002Z" fill="#1E9F09"/>
<path d="M1965 1033.61C1965 1169.75 1457.74 1280.11 832 1280.11C206.261 1280.11 -301 1169.75 -301 1033.61C-301 897.476 917.5 717.115 1122.5 809.115C1660.19 1050.42 1965 897.476 1965 1033.61Z" fill="#5AC507"/>
<path d="M1610.37 832.266C1613.37 834.607 1615.61 836.705 1615.34 837.051C1615.07 837.397 1612.42 835.779 1609.43 833.438C1606.43 831.097 1604.22 828.919 1604.49 828.574C1604.76 828.228 1607.68 830.196 1610.37 832.266Z" fill="#9A9C39"/>
<path d="M1584.37 830.266C1587.37 832.607 1589.61 834.705 1589.34 835.051C1589.07 835.397 1586.42 833.779 1583.43 831.438C1580.43 829.097 1578.22 826.919 1578.49 826.574C1578.76 826.228 1581.68 828.196 1584.37 830.266Z" fill="#9A9C39"/>
<path d="M1749.18 469L1740.4 484.133L1730.28 495.462L1737.12 525.646L1718.94 567.461L1672.04 617.17L1657.68 588.984L1694.83 557.858L1721.01 528.244L1723.11 487.334L1733.77 481.9L1749.18 469Z" fill="#5A5312"/>
<path d="M1749.18 469L1740.4 484.133L1726.5 490L1725.5 528.244L1679 577L1672.04 617.17L1657.68 588.984L1694.83 557.858L1721.01 528.244L1723.11 487.334L1733.77 481.9L1749.18 469Z" fill="white"/>
<path d="M1580 468L1589.5 481.5L1595 494.515L1625 501.508L1654 533.851L1677 593H1645.37L1634.5 549.585L1620 515.786L1584.5 497V486L1580 468Z" fill="#5A5312"/>
<path d="M1580 468L1589.5 481.5L1595 494.515L1625 501.508L1648.5 527.5L1657 530.5L1659 547.5H1654L1645.37 538L1640.5 524.5L1625 505L1584.5 497V486L1580 468Z" fill="white"/>
<path d="M1580 468L1589.5 481.5L1595 494.515L1625 501.508L1648.5 527.5L1657 530.5L1659 547.5H1654L1645.37 538L1640.5 524.5L1625 505L1584.5 497V486L1580 468Z" fill="white"/>
<path d="M1538.5 641.5L1552 651L1565.02 656.5L1572.01 686.5L1604.35 715.5L1663.5 738.5V706.866L1620.09 696L1586.29 681.5L1567.5 646H1556.5L1538.5 641.5Z" fill="#5A5312"/>
<path d="M1526 576.637L1541.53 582.247L1553.5 589.753L1582.08 578.274L1624.39 588.134L1677.15 623.394L1651.24 641.539L1617.44 612.208L1586.17 592.838L1546.32 597.811L1540.01 588.801L1526 576.637Z" fill="#5A5312"/>
<path d="M1726.99 592L1720.11 603.857L1712.46 611.771L1715.81 642.02L1701.03 676.426L1665.74 710.474L1657.02 680.065L1684.58 660.857L1704.38 640.096L1707.82 602.179L1715.56 599.959L1726.99 592Z" fill="#5A5312"/>
<path d="M1669.35 406L1667.95 422.448L1663.8 435.954L1682.28 460.594L1683.71 504.011L1663.31 564.106L1639.07 543.772L1658.66 503.53L1669.27 468.317L1654.15 431.108L1661.23 422.681L1669.35 406Z" fill="#5A5312"/>
<path d="M1669.35 406L1667.95 422.448L1663.8 435.954L1682.28 460.594L1667 493.5L1653 528L1644 533L1658.66 503.53L1669.27 468.317L1654.15 431.108L1661.23 422.681L1669.35 406Z" fill="white"/>
<path d="M1526 576.637L1541.53 582.247L1553.5 589.753L1582.08 578.274L1624.39 588.134L1677.15 623.394L1663.5 636.5L1624.39 597.811L1582.08 582.247L1546.32 597.811L1540.01 588.801L1526 576.637Z" fill="#EDECE4"/>
<path d="M1645 593H1676.5L1687 854H1645V593Z" fill="#5A5312"/>
<path d="M1645 593H1676.5L1687 854H1645V593Z" fill="#5A5312"/>
<ellipse cx="1647.68" cy="399.063" rx="34.0075" ry="30.5186" fill="#3EDF23"/>
<ellipse cx="1607.48" cy="392.51" rx="20.4807" ry="17.3238" fill="#3EDF23"/>
<ellipse cx="1644.82" cy="363.787" rx="32.1023" ry="23.7866" fill="#3EDF23"/>
<ellipse cx="1616.05" cy="377.61" rx="20.4807" ry="17.3238" fill="#3EDF23"/>
<ellipse cx="1670.54" cy="416.386" rx="20.4807" ry="17.3238" fill="#3EDF23"/>
<ellipse cx="1699.5" cy="427.157" rx="20.4807" ry="17.3238" fill="#3EDF23"/>
<ellipse cx="1701.98" cy="402.384" rx="20.4807" ry="17.3238" fill="#3EDF23"/>
<ellipse cx="1622.82" cy="414.053" rx="27.2441" ry="21.6323" fill="#3EDF23"/>
<ellipse cx="1654.73" cy="444.482" rx="34.0075" ry="30.5186" fill="#3EDF23"/>
<ellipse cx="1677.02" cy="383.444" rx="34.0075" ry="30.5186" fill="#3EDF23"/>
<ellipse cx="1647.6" cy="383.313" rx="18.8291" ry="15.1463" fill="#F5FBF4"/>
<ellipse cx="1625.34" cy="380.061" rx="11.3397" ry="8.59774" fill="#F5FBF4"/>
<ellipse cx="1646.01" cy="365.805" rx="17.7743" ry="11.8052" fill="#F5FBF4"/>
<ellipse cx="1630.09" cy="372.666" rx="11.3397" ry="8.59774" fill="#F5FBF4"/>
<ellipse cx="1660.26" cy="391.91" rx="11.3397" ry="8.59774" fill="#F5FBF4"/>
<ellipse cx="1676.29" cy="397.256" rx="11.3397" ry="8.59774" fill="#F5FBF4"/>
<ellipse cx="1677.66" cy="384.961" rx="11.3397" ry="8.59774" fill="#F5FBF4"/>
<ellipse cx="1633.83" cy="390.752" rx="15.0844" ry="10.736" fill="#F5FBF4"/>
<ellipse cx="1651.5" cy="405.854" rx="18.8291" ry="15.1463" fill="#F5FBF4"/>
<ellipse cx="1663.84" cy="375.561" rx="18.8291" ry="15.1463" fill="#F5FBF4"/>
<ellipse cx="1562.24" cy="466.438" rx="26.4759" ry="25.5452" fill="#3FC002"/>
<ellipse cx="1530.94" cy="460.953" rx="15.9448" ry="14.5007" fill="#3FC002"/>
<ellipse cx="1560.02" cy="436.91" rx="24.9926" ry="19.9102" fill="#3FC002"/>
<ellipse cx="1537.62" cy="448.481" rx="15.9448" ry="14.5007" fill="#3FC002"/>
<ellipse cx="1580.04" cy="480.938" rx="15.9448" ry="14.5007" fill="#3FC002"/>
<ellipse cx="1602.59" cy="489.954" rx="15.9448" ry="14.5007" fill="#3FC002"/>
<ellipse cx="1604.51" cy="469.217" rx="15.9448" ry="14.5007" fill="#3FC002"/>
<ellipse cx="1542.89" cy="478.985" rx="21.2104" ry="18.107" fill="#3FC002"/>
<ellipse cx="1567.73" cy="504.455" rx="26.4759" ry="25.5452" fill="#3FC002"/>
<ellipse cx="1585.08" cy="453.364" rx="26.4759" ry="25.5452" fill="#3FC002"/>
<ellipse cx="1504.74" cy="548.438" rx="35.8004" ry="29.1622" fill="#38DD1D"/>
<ellipse cx="1462.42" cy="542.176" rx="21.5605" ry="16.5539" fill="#38DD1D"/>
<ellipse cx="1501.73" cy="514.729" rx="33.7948" ry="22.7294" fill="#38DD1D"/>
<ellipse cx="1471.44" cy="527.938" rx="21.5605" ry="16.5539" fill="#38DD1D"/>
<ellipse cx="1528.81" cy="564.991" rx="21.5605" ry="16.5539" fill="#38DD1D"/>
<ellipse cx="1559.29" cy="575.284" rx="21.5605" ry="16.5539" fill="#38DD1D"/>
<ellipse cx="1561.9" cy="551.611" rx="21.5605" ry="16.5539" fill="#38DD1D"/>
<ellipse cx="1478.56" cy="562.761" rx="28.6805" ry="20.6709" fill="#38DD1D"/>
<ellipse cx="1512.16" cy="591.838" rx="35.8004" ry="29.1622" fill="#38DD1D"/>
<ellipse cx="1535.62" cy="533.513" rx="35.8004" ry="29.1622" fill="#38DD1D"/>
<ellipse cx="1548.24" cy="666.438" rx="26.4759" ry="25.5452" fill="#08930D"/>
<ellipse cx="1516.94" cy="660.953" rx="15.9448" ry="14.5007" fill="#08930D"/>
<ellipse cx="1546.02" cy="636.91" rx="24.9926" ry="19.9102" fill="#08930D"/>
<ellipse cx="1523.62" cy="648.481" rx="15.9448" ry="14.5007" fill="#08930D"/>
<ellipse cx="1566.04" cy="680.938" rx="15.9448" ry="14.5007" fill="#08930D"/>
<ellipse cx="1588.59" cy="689.954" rx="15.9448" ry="14.5007" fill="#08930D"/>
<ellipse cx="1590.51" cy="669.217" rx="15.9448" ry="14.5007" fill="#08930D"/>
<ellipse cx="1528.89" cy="678.985" rx="21.2104" ry="18.107" fill="#08930D"/>
<ellipse cx="1553.73" cy="704.455" rx="26.4759" ry="25.5452" fill="#08930D"/>
<ellipse cx="1571.08" cy="653.364" rx="26.4759" ry="25.5452" fill="#08930D"/>
<ellipse cx="1732.24" cy="597.438" rx="26.4759" ry="25.5452" fill="#08930D"/>
<ellipse cx="1700.94" cy="591.953" rx="15.9448" ry="14.5007" fill="#08930D"/>
<ellipse cx="1730.02" cy="567.91" rx="24.9926" ry="19.9102" fill="#08930D"/>
<ellipse cx="1707.62" cy="579.481" rx="15.9448" ry="14.5007" fill="#08930D"/>
<ellipse cx="1750.04" cy="611.938" rx="15.9448" ry="14.5007" fill="#08930D"/>
<ellipse cx="1772.59" cy="620.954" rx="15.9448" ry="14.5007" fill="#08930D"/>
<ellipse cx="1774.51" cy="600.217" rx="15.9448" ry="14.5007" fill="#08930D"/>
<ellipse cx="1712.89" cy="609.985" rx="21.2104" ry="18.107" fill="#08930D"/>
<ellipse cx="1737.73" cy="635.455" rx="26.4759" ry="25.5452" fill="#08930D"/>
<ellipse cx="1755.08" cy="584.364" rx="26.4759" ry="25.5452" fill="#08930D"/>
<ellipse cx="1784.03" cy="450.438" rx="40.9273" ry="29.1622" fill="#08930D"/>
<ellipse cx="1735.65" cy="444.176" rx="24.6481" ry="16.5539" fill="#08930D"/>
<ellipse cx="1780.59" cy="416.729" rx="38.6344" ry="22.7294" fill="#08930D"/>
<ellipse cx="1745.97" cy="429.938" rx="24.6481" ry="16.5539" fill="#08930D"/>
<ellipse cx="1811.54" cy="466.991" rx="24.6481" ry="16.5539" fill="#08930D"/>
<ellipse cx="1846.39" cy="477.284" rx="24.6481" ry="16.5539" fill="#08930D"/>
<ellipse cx="1849.37" cy="453.611" rx="24.6481" ry="16.5539" fill="#08930D"/>
<ellipse cx="1754.11" cy="464.761" rx="32.7877" ry="20.6709" fill="#08930D"/>
<ellipse cx="1792.51" cy="493.838" rx="40.9273" ry="29.1622" fill="#08930D"/>
<ellipse cx="1819.34" cy="435.513" rx="40.9273" ry="29.1622" fill="#08930D"/>
<ellipse cx="1733.33" cy="588.812" rx="15.3143" ry="9.72075" fill="#F5FBF4"/>
<ellipse cx="1715.22" cy="586.725" rx="9.22292" ry="5.51795" fill="#F5FBF4"/>
<ellipse cx="1732.04" cy="577.576" rx="14.4564" ry="7.57647" fill="#F5FBF4"/>
<ellipse cx="1719.08" cy="581.979" rx="9.22292" ry="5.51795" fill="#F5FBF4"/>
<ellipse cx="1743.62" cy="594.33" rx="9.22292" ry="5.51795" fill="#F5FBF4"/>
<ellipse cx="1756.66" cy="597.761" rx="9.22292" ry="5.51795" fill="#F5FBF4"/>
<ellipse cx="1757.78" cy="589.87" rx="9.22292" ry="5.51795" fill="#F5FBF4"/>
<ellipse cx="1722.13" cy="593.587" rx="12.2686" ry="6.8903" fill="#F5FBF4"/>
<ellipse cx="1736.5" cy="603.279" rx="15.3143" ry="9.72075" fill="#F5FBF4"/>
<ellipse cx="1746.54" cy="583.838" rx="15.3143" ry="9.72075" fill="#F5FBF4"/>
<path d="M839.475 548L935 633.376L907.31 623.979L890.629 633.376L869.222 603.306L847.48 628.946L835.582 616.462L817.233 637L799.996 619.952L782.481 637L772.195 626.664L741 637L839.475 548Z" fill="#EEF7F8"/>
<rect width="387.58" height="111.108" transform="matrix(-0.865364 -0.501143 0.749549 -0.661949 1045.91 1065.34)" fill="#2E3E3F"/>
<path d="M403.5 419L573.5 578L525.5 560.5L495.5 578L457 522L417.898 569.75L396.5 546.5L363.5 584.75L332.5 553L301 584.75L282.5 565.5L226.398 584.75L403.5 419Z" fill="#EEF7F8"/>
<path d="M1132.1 471L1285.5 638L1254.1 612.5L1224.1 630L1185.6 574L1146.5 621.75L1125.1 598.5L1092.1 636.75L1061.1 605L1029.6 636.75L1011.1 617.5L969.5 641L1132.1 471Z" fill="#EEF7F8"/>
<path d="M1904 1047.23C1904 1194.01 1721.33 1313 1496 1313C1270.67 1313 1088 1194.01 1088 1047.23C1088 900.446 1268.7 953.808 1566.54 836.409C1870.04 791.947 1819.96 932.826 1904 1047.23Z" fill="#FAF9F7"/>
<path d="M1665 1118.12C1665 1303.07 1256.01 1453 751.5 1453C246.988 1453 -162 1303.07 -162 1118.12C-162 933.164 820.436 688.133 985.72 813.12C1419.24 1140.95 1665 933.164 1665 1118.12Z" fill="#F3F3EB"/>
<ellipse cx="1560.05" cy="450.188" rx="19.0802" ry="15.5984" fill="#F5FBF4"/>
<ellipse cx="1537.49" cy="446.838" rx="11.4909" ry="8.85439" fill="#F5FBF4"/>
<ellipse cx="1558.44" cy="432.158" rx="18.0112" ry="12.1576" fill="#F5FBF4"/>
<ellipse cx="1542.3" cy="439.223" rx="11.4909" ry="8.85439" fill="#F5FBF4"/>
<ellipse cx="1572.87" cy="459.042" rx="11.4909" ry="8.85439" fill="#F5FBF4"/>
<ellipse cx="1589.12" cy="464.547" rx="11.4909" ry="8.85439" fill="#F5FBF4"/>
<ellipse cx="1590.51" cy="451.885" rx="11.4909" ry="8.85439" fill="#F5FBF4"/>
<ellipse cx="1546.1" cy="457.849" rx="15.2855" ry="11.0565" fill="#F5FBF4"/>
<ellipse cx="1564" cy="473.402" rx="19.0802" ry="15.5984" fill="#F5FBF4"/>
<ellipse cx="1576.51" cy="442.205" rx="19.0802" ry="15.5984" fill="#F5FBF4"/>
<ellipse cx="1560.05" cy="450.188" rx="19.0802" ry="15.5984" fill="#F5FBF4"/>
<ellipse cx="1537.49" cy="446.838" rx="11.4909" ry="8.85439" fill="#F5FBF4"/>
<ellipse cx="1558.44" cy="432.158" rx="18.0112" ry="12.1576" fill="#F5FBF4"/>
<ellipse cx="1542.3" cy="439.223" rx="11.4909" ry="8.85439" fill="#F5FBF4"/>
<ellipse cx="1572.87" cy="459.042" rx="11.4909" ry="8.85439" fill="#F5FBF4"/>
<ellipse cx="1589.12" cy="464.547" rx="11.4909" ry="8.85439" fill="#F5FBF4"/>
<ellipse cx="1590.51" cy="451.885" rx="11.4909" ry="8.85439" fill="#F5FBF4"/>
<ellipse cx="1546.1" cy="457.849" rx="15.2855" ry="11.0565" fill="#F5FBF4"/>
<ellipse cx="1564" cy="473.402" rx="19.0802" ry="15.5984" fill="#F5FBF4"/>
<ellipse cx="1576.51" cy="442.205" rx="19.0802" ry="15.5984" fill="#F5FBF4"/>
<ellipse cx="1786.03" cy="445.188" rx="33.6413" ry="15.5984" fill="#F5FBF4"/>
<ellipse cx="1746.26" cy="441.838" rx="20.2602" ry="8.85439" fill="#F5FBF4"/>
<ellipse cx="1783.2" cy="427.158" rx="31.7567" ry="12.1576" fill="#F5FBF4"/>
<ellipse cx="1754.74" cy="434.223" rx="20.2602" ry="8.85439" fill="#F5FBF4"/>
<ellipse cx="1808.64" cy="454.042" rx="20.2602" ry="8.85439" fill="#F5FBF4"/>
<ellipse cx="1837.29" cy="459.547" rx="20.2602" ry="8.85439" fill="#F5FBF4"/>
<ellipse cx="1839.74" cy="446.885" rx="20.2602" ry="8.85439" fill="#F5FBF4"/>
<ellipse cx="1761.43" cy="452.849" rx="26.9508" ry="11.0565" fill="#F5FBF4"/>
<ellipse cx="1793" cy="468.402" rx="33.6413" ry="15.5984" fill="#F5FBF4"/>
<ellipse cx="1815.05" cy="437.205" rx="33.6413" ry="15.5984" fill="#F5FBF4"/>
<ellipse cx="1547.39" cy="664.375" rx="19.8333" ry="9.49469" fill="#F5FBF4"/>
<ellipse cx="1523.94" cy="662.336" rx="11.9444" ry="5.38963" fill="#F5FBF4"/>
<ellipse cx="1545.72" cy="653.4" rx="18.7222" ry="7.40027" fill="#F5FBF4"/>
<ellipse cx="1528.94" cy="657.701" rx="11.9444" ry="5.38963" fill="#F5FBF4"/>
<ellipse cx="1560.72" cy="669.765" rx="11.9444" ry="5.38963" fill="#F5FBF4"/>
<ellipse cx="1577.61" cy="673.116" rx="11.9444" ry="5.38963" fill="#F5FBF4"/>
<ellipse cx="1579.06" cy="665.408" rx="11.9444" ry="5.38963" fill="#F5FBF4"/>
<ellipse cx="1532.89" cy="669.039" rx="15.8889" ry="6.73006" fill="#F5FBF4"/>
<ellipse cx="1551.5" cy="678.505" rx="19.8333" ry="9.49469" fill="#F5FBF4"/>
<ellipse cx="1564.5" cy="659.516" rx="19.8333" ry="9.49469" fill="#F5FBF4"/>
<ellipse cx="1485.21" cy="546.438" rx="23.097" ry="18.3112" fill="#F5FBF4"/>
<ellipse cx="1457.91" cy="542.506" rx="13.91" ry="10.3943" fill="#F5FBF4"/>
<ellipse cx="1483.27" cy="525.272" rx="21.8031" ry="14.2719" fill="#F5FBF4"/>
<ellipse cx="1463.73" cy="533.566" rx="13.91" ry="10.3943" fill="#F5FBF4"/>
<ellipse cx="1500.74" cy="556.832" rx="13.91" ry="10.3943" fill="#F5FBF4"/>
<ellipse cx="1520.41" cy="563.295" rx="13.91" ry="10.3943" fill="#F5FBF4"/>
<ellipse cx="1522.09" cy="548.43" rx="13.91" ry="10.3943" fill="#F5FBF4"/>
<ellipse cx="1468.33" cy="555.431" rx="18.5035" ry="12.9794" fill="#F5FBF4"/>
<ellipse cx="1490" cy="573.689" rx="23.097" ry="18.3112" fill="#F5FBF4"/>
<ellipse cx="1505.14" cy="537.066" rx="23.097" ry="18.3112" fill="#F5FBF4"/>
</g>
<defs>
<clipPath id="clip0_38_520">
<rect width="1920" height="1080" fill="white"/>
</clipPath>
</defs>
</svg>
